<svg xmlns="http://www.w3.org/2000/svg" width="600" height="800" viewBox="0 0 600 800">
  <defs>
    <linearGradient id="sky" x1="0" x2="0" y1="0" y2="1">
      <stop offset="0" stop-color="#0b0d10"/>
      <stop offset="0.55" stop-color="#0e1220"/>
      <stop offset="1" stop-color="#101522"/>
    </linearGradient>
    <radialGradient id="glow" cx="25%" cy="20%" r="70%">
      <stop offset="0" stop-color="#c7d6ff" stop-opacity="0.20"/>
      <stop offset="0.6" stop-color="#36507a" stop-opacity="0.08"/>
      <stop offset="1" stop-color="#000" stop-opacity="0"/>
    </radialGradient>
    <linearGradient id="build" x1="0" x2="0" y1="0" y2="1">
      <stop offset="0" stop-color="#1c2a4a" stop-opacity="0.9"/>
      <stop offset="1" stop-color="#0b0d10" stop-opacity="0.95"/>
    </linearGradient>
  </defs>

  <rect width="600" height="800" fill="url(#sky)"/>
  <rect width="600" height="800" fill="url(#glow)"/>

  <g fill="#c7d6ff" opacity="0.16">
    <circle cx="74" cy="96" r="2"/>
    <circle cx="150" cy="180" r="1.5"/>
    <circle cx="520" cy="132" r="1.8"/>
    <circle cx="410" cy="70" r="1.3"/>
    <circle cx="300" cy="160" r="1.1"/>
    <circle cx="240" cy="90" r="1.6"/>
  </g>

  <g fill="url(#build)">
    <path d="M0 560h70V420h40v140h55V480h40v80h35V400h45v160h50V455h35v105h40V430h35v130h70V800H0z"/>
    <path d="M0 640h110V520h45v120h55V560h40v80h50V500h45v140h50V545h40v95h65V800H0z" opacity="0.95"/>
  </g>

  <g fill="#c7d6ff" opacity="0.12">
    <rect x="40" y="450" width="8" height="10"/>
    <rect x="60" y="470" width="8" height="10"/>
    <rect x="88" y="498" width="8" height="10"/>
    <rect x="210" y="520" width="8" height="10"/>
    <rect x="232" y="540" width="8" height="10"/>
    <rect x="360" y="470" width="8" height="10"/>
    <rect x="382" y="492" width="8" height="10"/>
    <rect x="460" y="520" width="8" height="10"/>
    <rect x="482" y="548" width="8" height="10"/>
  </g>
</svg>
