<svg xmlns="http://www.w3.org/2000/svg" width="600" height="800" viewBox="0 0 600 800">
  <defs>
    <linearGradient id="sky" x1="0" x2="1" y1="0" y2="1">
      <stop offset="0" stop-color="#0e1220"/>
      <stop offset="0.55" stop-color="#101522"/>
      <stop offset="1" stop-color="#0b0d10"/>
    </linearGradient>
    <radialGradient id="glow" cx="75%" cy="25%" r="70%">
      <stop offset="0" stop-color="#36507a" stop-opacity="0.20"/>
      <stop offset="0.65" stop-color="#c7d6ff" stop-opacity="0.06"/>
      <stop offset="1" stop-color="#000" stop-opacity="0"/>
    </radialGradient>
    <linearGradient id="build" x1="0" x2="0" y1="0" y2="1">
      <stop offset="0" stop-color="#273047" stop-opacity="0.95"/>
      <stop offset="1" stop-color="#0b0d10" stop-opacity="0.98"/>
    </linearGradient>
  </defs>

  <rect width="600" height="800" fill="url(#sky)"/>
  <rect width="600" height="800" fill="url(#glow)"/>

  <g fill="#c7d6ff" opacity="0.14">
    <circle cx="92" cy="110" r="1.4"/>
    <circle cx="132" cy="170" r="1.2"/>
    <circle cx="206" cy="90" r="1.6"/>
    <circle cx="336" cy="140" r="1.0"/>
    <circle cx="468" cy="96" r="1.5"/>
    <circle cx="542" cy="160" r="1.1"/>
  </g>

  <g fill="url(#build)">
    <path d="M0 585h60V465h45v120h35V425h65v160h35V495h50v90h35V450h60v135h40V410h55v175h80V800H0z"/>
    <path d="M0 660h90V540h45v120h40V570h65v90h45V515h55v145h55V560h45v100h60V800H0z" opacity="0.92"/>
  </g>

  <g fill="#c7d6ff" opacity="0.10">
    <rect x="82" y="500" width="8" height="10"/>
    <rect x="104" y="528" width="8" height="10"/>
    <rect x="210" y="456" width="8" height="10"/>
    <rect x="232" y="486" width="8" height="10"/>
    <rect x="300" y="526" width="8" height="10"/>
    <rect x="322" y="556" width="8" height="10"/>
    <rect x="438" y="470" width="8" height="10"/>
    <rect x="460" y="502" width="8" height="10"/>
  </g>
</svg>
